<?xml version="1.0" encoding="UTF-8"?>
<svg width="100pt" height="100pt" version="1.1" viewBox="0 0 100 100" xmlns="http://www.w3.org/2000/svg">
 <path d="m97.102 61.801c0 15.801-12.898 28.699-28.699 28.699-3.6016 0-6.5-2.8984-6.5-6.5s2.8984-6.5 6.5-6.5c8.6016 0 15.699-7 15.699-15.699 0-8.6016-7-15.699-15.699-15.699h-43.301l12.602 12.602c2.5 2.5 2.5 6.6992 0 9.1992-1.3008 1.3008-2.8984 1.8984-4.6016 1.8984-1.6992 0-3.3008-0.60156-4.6016-1.8984l-23.699-23.602c-2.5-2.5-2.5-6.6992 0-9.1992l23.699-23.699c2.5-2.5 6.6992-2.5 9.1992 0s2.5 6.6992 0 9.1992l-12.598 12.598h43.301c15.797 0 28.699 12.801 28.699 28.602z"/>
</svg>
