<svg xmlns="http://www.w3.org/2000/svg" viewBox="0 0 8.467 8.467"><path style="line-height:normal;text-indent:0;text-align:start;text-decoration-line:none;text-decoration-style:solid;text-decoration-color:#000;text-transform:none;block-progression:tb;isolation:auto;mix-blend-mode:normal" d="M1.32 1.984a.132.132 0 0 0-.129.135v2.377a.132.132 0 1 0 .264 0V2.119a.132.132 0 0 0-.135-.135zM7.143 1.984a.132.132 0 0 0-.131.135v2.377a.132.132 0 1 0 .263 0V2.119a.132.132 0 0 0-.132-.135z" color="#000" font-weight="400" font-family="sans-serif" white-space="normal" overflow="visible" fill-rule="evenodd"/><path style="line-height:normal;text-indent:0;text-align:start;text-decoration-line:none;text-decoration-style:solid;text-decoration-color:#000;text-transform:none;block-progression:tb;isolation:auto;mix-blend-mode:normal" d="M4.232 1.808c-.544 0-1.088.112-1.597.334l-.545.239h-.768v.265h.823l.595-.261a3.727 3.727 0 0 1 2.987 0l.595.261h.823v-.265h-.768l-.545-.239a3.992 3.992 0 0 0-1.6-.334z" color="#000" font-weight="400" font-family="sans-serif" white-space="normal" overflow="visible" fill-rule="evenodd"/><path d="M1.455 1.72a.132.132 0 0 1-.132.132.132.132 0 0 1-.132-.132.132.132 0 0 1 .132-.133.132.132 0 0 1 .132.133zM7.276 1.72a.132.132 0 0 1-.132.132.132.132 0 0 1-.133-.132.132.132 0 0 1 .133-.133.132.132 0 0 1 .132.133z"/><path style="line-height:normal;text-indent:0;text-align:start;text-decoration-line:none;text-decoration-style:solid;text-decoration-color:#000;text-transform:none;block-progression:tb;isolation:auto;mix-blend-mode:normal" d="M1.582 4.365a.665.665 0 0 0-.662.662v.397a.133.133 0 0 0 .266 0v-.397c0-.22.175-.396.396-.396h5.291c.22 0 .397.175.397.396v.397a.133.133 0 0 0 .265 0v-.397a.665.665 0 0 0-.662-.662H1.582z" color="#000" font-weight="400" font-family="sans-serif" white-space="normal" overflow="visible"/><path style="line-height:normal;text-indent:0;text-align:start;text-decoration-line:none;text-decoration-style:solid;text-decoration-color:#000;text-transform:none;block-progression:tb;isolation:auto;mix-blend-mode:normal" d="M.926 5.29a.132.132 0 0 0-.133.134v.925a.132.132 0 0 0 .133.133H2.91a.132.132 0 1 0 0-.263H1.06v-.662h3.836a.133.133 0 0 0 0-.266H.925zm5.027 0a.133.133 0 1 0 0 .267h1.455v.662h-3.44a.132.132 0 1 0 0 .263h3.573a.132.132 0 0 0 .133-.133v-.925a.132.132 0 0 0-.133-.133H5.953z" color="#000" font-weight="400" font-family="sans-serif" white-space="normal" overflow="visible"/><path style="line-height:normal;text-indent:0;text-align:start;text-decoration-line:none;text-decoration-style:solid;text-decoration-color:#000;text-transform:none;block-progression:tb;isolation:auto;mix-blend-mode:normal" d="M1.322 6.35v.529h1.059v-.53h-.264v.266h-.53V6.35h-.265zM6.086 6.35v.529h1.059v-.53h-.266v.266h-.53V6.35h-.263z" color="#000" font-weight="400" font-family="sans-serif" white-space="normal" overflow="visible" fill-rule="evenodd"/><path style="line-height:normal;text-indent:0;text-align:start;text-decoration-line:none;text-decoration-style:solid;text-decoration-color:#000;text-transform:none;block-progression:tb;isolation:auto;mix-blend-mode:normal" d="M6.48 3.42a.132.132 0 0 0-.017.002s-.258.036-.44.09a.372.372 0 0 1-.162-.018c-.081-.02-.185-.051-.306-.051h-.13c-.127 0-.235.04-.316.063-.08.023-.117.022-.125.017-.254-.144-.507-.101-.507-.101a.132.132 0 0 0-.1.181s.104.275.107.4l.012.473a.132.132 0 1 0 .264-.008l-.012-.47c-.003-.131-.037-.183-.072-.282.063.004.087-.014.178.037.118.067.237.035.33.008.092-.026.175-.054.242-.054h.129c.074 0 .154.02.242.043.088.021.188.049.3.015.076-.022.127-.028.212-.043-.04.094-.08.114-.077.282l.012.472a.132.132 0 1 0 .264-.008l-.012-.47c-.006-.23.094-.37.094-.37a.132.132 0 0 0-.11-.209zM3.967 3.42a.132.132 0 0 0-.018.002s-.258.036-.44.09a.372.372 0 0 1-.161-.018c-.082-.02-.186-.051-.307-.051h-.129c-.128 0-.236.04-.316.063-.08.023-.117.022-.125.017-.255-.144-.508-.101-.508-.101a.132.132 0 0 0-.1.181s.104.275.108.4l.011.473a.132.132 0 1 0 .264-.008l-.012-.47c-.003-.131-.037-.183-.072-.282.063.004.087-.014.178.037.118.067.238.035.33.008.092-.026.175-.054.242-.054h.129c.074 0 .154.02.242.043.088.021.188.049.301.015.075-.022.126-.028.21-.043-.038.094-.08.114-.075.282l.011.472a.132.132 0 1 0 .264-.008l-.012-.47c-.005-.23.094-.37.094-.37a.132.132 0 0 0-.11-.209z" color="#000" font-weight="400" font-family="sans-serif" white-space="normal" overflow="visible"/></svg>