<?xml version="1.0" encoding="UTF-8"?>
<svg width="100pt" height="100pt" version="1.1" viewBox="0 0 100 100" xmlns="http://www.w3.org/2000/svg">
 <g>
  <path d="m35.941 21.867c-0.41797-0.003907-0.81641 0.16406-1.1133 0.45703-0.29297 0.29297-0.45703 0.69531-0.45703 1.1094v7.8203h3.1367v-6.25h53.125v62.492c0 3.4883-2.7617 6.25-6.25 6.25h-31.258v3.1133h31.258c5.168 0 9.3672-4.1992 9.3672-9.3672v-64.062 0.003906c0-0.41406-0.16406-0.81641-0.45703-1.1094-0.29688-0.29297-0.69531-0.46094-1.1133-0.45703h-56.242z"/>
  <path d="m53.125 78.129v3.1133h39.586v-3.1133z" fill-rule="evenodd"/>
  <path d="m14.602 34.371c-0.41406-0.003906-0.81641 0.16016-1.1094 0.45703-0.29688 0.29297-0.46094 0.69141-0.45703 1.1094v7.2422l-6.5078 9.5781c-0.16797 0.25781-0.25781 0.5625-0.25391 0.875l-0.023438 41.684c0.011719 0.85938 0.71094 1.5508 1.5703 1.5469h40.602c0.41406 0 0.81641-0.16406 1.1094-0.45703 0.29297-0.29688 0.46094-0.69531 0.45703-1.1133v-41.523c0.003907-0.30859-0.082031-0.61328-0.25391-0.875l-6.5039-9.7109v-7.2461c0.003906-0.85547-0.6875-1.5586-1.5469-1.5664zm1.5469 3.1367h23.969v6.1367c-0.003907 0.30859 0.082031 0.61328 0.25391 0.875l6.5039 9.7109v39.492l-37.508 0.023438 0.023437-39.656 6.5039-9.5742v0.003906c0.16797-0.26172 0.25781-0.56641 0.25391-0.875z" fill-rule="evenodd"/>
  <path d="m34.258 67.195c-0.50391 0.035157-0.96094 0.30859-1.2227 0.73828 0 0-0.80859 1.3477-1.6133 2.8828-0.40234 0.76953-0.80859 1.5859-1.1289 2.3516-0.32031 0.76562-0.60156 1.3633-0.60156 2.2852 0 2.4648 2.2344 4.2227 4.6836 4.2227s4.6836-1.7578 4.6836-4.2227c0-0.92188-0.27734-1.5195-0.60156-2.2852-0.32031-0.76562-0.72656-1.5859-1.1289-2.3516-0.80469-1.5352-1.6133-2.8828-1.6133-2.8828h-0.003906c-0.30859-0.5-0.87109-0.78516-1.4531-0.73828zm0.11719 4.7539c0.089844 0.16406 0.09375 0.15234 0.18359 0.32422 0.37891 0.72266 0.75 1.4688 1.0156 2.0977s0.36719 1.2656 0.36719 1.0859c0 0.49609-0.56641 1.1055-1.5703 1.1055s-1.5703-0.61328-1.5703-1.1055c0 0.17969 0.10547-0.45703 0.36719-1.0859 0.26562-0.62891 0.63672-1.3789 1.0156-2.0977 0.089844-0.17188 0.09375-0.15625 0.18359-0.32422z"/>
  <path d="m14.719 42.949c-0.55078 0.042969-1.0352 0.37109-1.2812 0.85938-0.24609 0.49219-0.21484 1.0781 0.082031 1.543l6.0195 9.7812v39.402-0.003906c-0.035156 0.4375 0.10938 0.86719 0.40625 1.1875 0.29688 0.32422 0.71484 0.50781 1.1523 0.50781s0.85156-0.18359 1.1484-0.50781c0.29688-0.32031 0.44531-0.75 0.40625-1.1875v-39.84c0.003906-0.29297-0.078125-0.57812-0.23047-0.82812l-6.25-10.148v-0.003906c-0.30078-0.50781-0.86328-0.80078-1.4531-0.76172z" fill-rule="evenodd"/>
  <path d="m12.504 53.125v3.1133h35.941v-3.1133z" fill-rule="evenodd"/>
  <path d="m20.324 42.191v3.1133h21.867v-3.1133z" fill-rule="evenodd"/>
  <path d="m58.996 22.391c-1.3281 1.4688 0.73828 3.5352 2.207 2.207l19.551-17.68c3.7891 4.4805 5.7656 10.305 5.2812 16.195-0.17969 2.0859 2.9492 2.3438 3.1172 0.26172 0.60156-7.3086-1.9922-14.516-7.1094-19.77-0.58203-0.60547-1.543-0.64062-2.168-0.082031l-20.762 18.75c-0.039062 0.035156-0.082031 0.070312-0.11719 0.11719z"/>
  <path d="m76.254 7.4766c-0.61328 0.60156-0.625 1.5898-0.023437 2.207 3.3242 3.5273 4.9805 8.3125 4.5469 13.141h0.003906c-0.054688 0.42188 0.066406 0.84375 0.33203 1.1758s0.65234 0.53906 1.0742 0.57812 0.84375-0.097656 1.1641-0.375c0.32031-0.27734 0.51563-0.67188 0.53906-1.0977 0.51172-5.7188-1.4492-11.391-5.3867-15.566h-0.003906c-0.28516-0.3125-0.6875-0.49609-1.1094-0.50781-0.42188-0.007812-0.83203 0.15234-1.1367 0.44922z"/>
  <path d="m71.695 16.398c-0.35156 0.046874-0.67578 0.20703-0.92187 0.46094l-0.73828 0.73828c-0.60938 0.61328-0.60938 1.6055 0 2.2148 0.61328 0.61328 1.6055 0.61328 2.2148 0l0.73828-0.73828c0.48828-0.46875 0.62109-1.1953 0.32422-1.8047-0.29297-0.60938-0.94531-0.96094-1.6172-0.87109z" fill-rule="evenodd"/>
  <path d="m76.562 14.602c-0.64062-0.007812-1.2188 0.38281-1.4609 0.97656-0.23828 0.59766-0.089843 1.2812 0.37891 1.7188l0.73828 0.73828c0.60938 0.61328 1.6016 0.61328 2.2148 0 0.60938-0.60938 0.60938-1.6016 0-2.2109l-0.73828-0.73828c-0.29687-0.3125-0.70312-0.48438-1.1328-0.48438z" fill-rule="evenodd"/>
  <path d="m74.117 20.184c-0.64453-0.015625-1.2344 0.37109-1.4805 0.96875-0.24219 0.59766-0.09375 1.2852 0.375 1.7305l0.73828 0.71484c0.28125 0.33203 0.6875 0.53125 1.125 0.55078 0.43359 0.019531 0.85938-0.14453 1.168-0.44922 0.30859-0.30859 0.47656-0.73047 0.46094-1.1641-0.011718-0.4375-0.21094-0.84766-0.53906-1.1328l-0.73828-0.73828v0.003907c-0.28906-0.30469-0.6875-0.48047-1.1094-0.48438z" fill-rule="evenodd"/>
  <path d="m49.09 10.953c-1.5898 0.66016-2.6016 1.9766-3.2773 3.2969-0.67188 1.3242-1.0781 2.7305-1.4062 3.8984-0.57031 2.0273-0.64453 2.9141-0.64453 5.2812h3.1133c0-2.3203 0.011719-2.5156 0.55469-4.4531 0.32422-1.1484 0.69141-2.3711 1.1758-3.3203 0.48438-0.95312 1.0391-1.5547 1.6836-1.8242 0.14453-0.058593 1.5547 0.035157 2.7461 0.46094 1.1914 0.42969 2.168 0.96875 2.168 0.96875l0.73828-1.3828 0.73828 1.3828s1-0.53906 2.1914-0.96875c1.1914-0.42969 2.6016-0.51953 2.7461-0.46094 0.64844 0.26953 1.1992 0.87109 1.6836 1.8242s0.83203 2.1719 1.1523 3.3203l3.0234-0.83203c-0.32812-1.168-0.73437-2.5742-1.4062-3.8984-0.67187-1.3242-1.6641-2.6406-3.2539-3.2969-1.8359-0.76172-3.5625-0.10547-5.0039 0.41406-1.0352 0.375-1.4492 0.59375-1.8672 0.80859-0.42187-0.21094-0.8125-0.4375-1.8438-0.80859-1.4453-0.51953-3.168-1.1758-5.0039-0.41406z" fill-rule="evenodd"/>
  <path d="m56.91 6.2266c-0.56641 0.050782-1.0625 0.40234-1.293 0.92188 0 0-1.0898 2.1445-1.4297 3.8516-0.33594 1.6797-0.16016 4.0352-0.16016 4.0352v0.003906c-0.015625 0.43359 0.14844 0.85547 0.45703 1.1641 0.30469 0.30469 0.72656 0.47266 1.1641 0.45312 0.43359-0.015625 0.83984-0.21094 1.125-0.54297 0.28125-0.32812 0.41797-0.76172 0.36719-1.1953 0 0-0.027344-2.5859 0.11719-3.2969 0.14453-0.73438 1.1992-3.1562 1.1992-3.1562 0.24219-0.50781 0.19922-1.1055-0.12109-1.5703-0.32031-0.46094-0.86719-0.71875-1.4258-0.66797z" fill-rule="evenodd"/>
 </g>
</svg>
