<svg width="69" height="31" viewBox="0 0 69 31" fill="none" xmlns="http://www.w3.org/2000/svg">
<path d="M22.77 4.06563L0 30.8983C1.99333 30.8983 7.038 31 11.27 31C15.502 31 19.6267 27.1632 21.16 25.2448L42.32 0.0504014C39.2533 -0.0263347 32.43 -0.0320781 29.67 0.152089C26.91 0.336255 24.38 2.35248 22.77 4.06563Z" fill="#BEBEBE"/>
<path d="M49.45 4.06563L26.68 30.8983C28.6733 30.8983 33.718 31 37.95 31C42.182 31 46.3067 27.1632 47.84 25.2448L69 0.0504014C65.9333 -0.0263347 59.11 -0.0320781 56.35 0.152089C53.59 0.336255 51.06 2.35248 49.45 4.06563Z" fill="#E8E8E8"/>
</svg>
