<svg xmlns="http://www.w3.org/2000/svg" xmlns:xlink="http://www.w3.org/1999/xlink" version="1.1" x="0px" y="0px" viewBox="0 0 50 50" style="enable-background:new 0 0 50 50;" xml:space="preserve"><g><path class="st0" d="M42.5,35.6l-3.9-5.5v-7.5c0-6.9-5.3-12.6-12-13.3V8.5c0-0.7-0.6-1.3-1.3-1.3c-0.7,0-1.3,0.6-1.3,1.3v0.8   c-6.8,0.6-12,6.4-12,13.3v7.5l-4.4,5.5c-0.3,0.4-0.4,0.9-0.2,1.4c0.2,0.4,0.7,0.7,1.2,0.7H19c0.6,2.9,3.2,5.1,6.3,5.1   c3.1,0,5.7-2.2,6.3-5.1h9.9c0.5,0,0.9-0.3,1.1-0.7C42.9,36.5,42.8,36,42.5,35.6z M25.3,40.2c-1.7,0-3.1-1.1-3.6-2.6h7.3   C28.4,39.1,27,40.2,25.3,40.2z M11.2,35.1l3-3.7c0.2-0.2,0.3-0.5,0.3-0.8v-7.9c0-5.9,4.8-10.8,10.8-10.8c5.9,0,10.8,4.8,10.8,10.8   v7.9c0,0.3,0.1,0.5,0.2,0.7l2.7,3.8H11.2z"></path></g></svg>