<?xml version="1.0" encoding="UTF-8"?>
<svg width="100pt" height="100pt" version="1.1" viewBox="0 0 100 100" xmlns="http://www.w3.org/2000/svg">
 <g>
  <path d="m13.281 28.75 26.641 28.828v38.906h20.156v-38.906l26.641-28.828 7.8125 7.8125 4.6875-33.359-33.359 4.6875 7.8906 7.8906-23.75 25.859c-3.9062-3.9844-7.8906-8.5156-11.719-12.812-3.9062-4.375-7.9688-8.9844-11.953-13.047l7.8125-7.8125-33.359-4.6875 4.6875 33.359zm12.578-18.047-5.0781 5.0781 1.4062 1.4062c4.375 4.375 8.8281 9.375 13.125 14.297 4.375 4.9219 8.8281 10 13.281 14.453l1.4062 1.4062 28.984-31.562-5-5 20.469-2.8906-2.8906 20.469-5.1562-5.1562-30.234 32.891v36.484h-12.344v-36.484l-30.391-32.969-5.1562 5.1562-2.8906-20.547z"/>
  <path d="m14.828 19.547 2.8828-2.6367 1.3203 1.4414-2.8828 2.6367z"/>
  <path d="m18.98 24.145 2.8828-2.6367 2.7969 3.0547-2.8828 2.6367z"/>
  <path d="m24.621 30.207 2.8828-2.6367 2.7969 3.0547-2.8828 2.6367z"/>
  <path d="m30.258 36.383 2.8828-2.6367 2.7969 3.0547-2.8828 2.6367z"/>
  <path d="m41.531 48.734 2.8828-2.6367 2.7969 3.0547-2.8828 2.6367z"/>
  <path d="m35.895 42.559 2.8828-2.6367 2.7969 3.0547-2.8828 2.6367z"/>
  <path d="m49.844 57.891 2.8125-2.8906-1.3281-1.3281-1.3281-1.4062-0.078125 0.078125-0.078125-0.078125-2.6562 2.6562z"/>
  <path d="m64.301 37.242 2.8711-2.9844 2.8125 2.7109-2.8711 2.9844z"/>
  <path d="m58.535 43.258 2.8711-2.9844 2.8125 2.7109-2.8711 2.9844z"/>
  <path d="m75.891 25.262 2.8711-2.9844 2.8125 2.7109-2.8711 2.9844z"/>
  <path d="m52.77 49.273 2.8711-2.9844 2.8125 2.7109-2.8711 2.9844z"/>
  <path d="m70.066 31.227 2.8711-2.9844 2.8125 2.7109-2.8711 2.9844z"/>
  <path d="m81.625 19.266 1.3555-1.4062 2.8164 2.707-1.3555 1.4062z"/>
  <path d="m48.258 76.586 3.9062-0.046876 0.046876 3.9062-3.9062 0.046876z"/>
  <path d="m48.336 84.398 3.9062-0.046876 0.042968 3.5156-3.9062 0.046874z"/>
  <path d="m48.023 60.961 3.9062-0.046876 0.046874 3.9062-3.9062 0.046876z"/>
  <path d="m48.18 68.773 3.9062-0.046876 0.046874 3.9062-3.9062 0.046876z"/>
 </g>
</svg>
