<?xml version="1.0" encoding="UTF-8"?>
<svg width="100pt" height="100pt" version="1.1" viewBox="0 0 100 100" xmlns="http://www.w3.org/2000/svg">
 <path d="m88.062 29.613-17.676-17.68c-0.375-0.375-0.88281-0.58594-1.4141-0.58594s-1.0391 0.21094-1.4141 0.58594l-10.66 10.664c-0.003907 0-0.003907 0.003906-0.003907 0.003906s-0.003906 0.003907-0.003906 0.003907l-40.48 40.477c-0.27734 0.27734-0.46875 0.63281-0.54688 1.0195l-4.4766 22.156c-0.13281 0.65625 0.070312 1.3359 0.54688 1.8086 0.37891 0.37891 0.89062 0.58594 1.4141 0.58594 0.13281 0 0.26562-0.011719 0.39453-0.039063l22.156-4.4805c0.38672-0.078124 0.73828-0.26953 1.0195-0.54687l51.145-51.145c0.78516-0.78125 0.78516-2.0469 0-2.8281zm-45.488 42.66-6.0117-6.0117 25.43-25.43c0.78125-0.78125 0.78125-2.0469 0-2.8281s-2.0469-0.78125-2.8281 0l-25.43 25.43-6.0117-6.0117 30.582-30.582 14.848 14.852zm-8.0586 8.0586-18.609 3.7617 3.7617-18.609 5.2305-5.2305 14.852 14.848zm41.469-41.469-14.848-14.852 7.8359-7.8359 14.848 14.852z"/>
</svg>